<svg preserveAspectRatio="none" width="100%" height="100%" overflow="visible" style="display: block;" viewBox="0 0 165.769 34.2128" fill="none" xmlns="http://www.w3.org/2000/svg">
<g id="Group">
<path id="Vector" d="M41.9045 4.87428H49.0021V34.2128H39.147V7.62518C39.147 6.10284 40.3822 4.86761 41.9045 4.86761V4.87428Z" fill="var(--fill-0, #283377)"/>
<path id="Vector_2" d="M35.5814 0H22.5413L9.85515 12.6528V0H2.75758C1.23524 0 0 1.23523 0 2.75758V34.2126H9.85515V21.5665L22.5347 34.2126H35.5747L18.4217 17.1063L35.5747 0H35.5814Z" fill="var(--fill-0, #283377)"/>
<g id="Group_2">
<path id="Vector_3" d="M84.924 26.0603H55.3986V34.2128H84.924V26.0603Z" fill="var(--fill-0, #283377)"/>
<path id="Vector_4" d="M58.1495 4.87429C56.6272 4.87429 55.392 6.10952 55.392 7.63187V22.8085H75.109L77.8799 16.2852H65.2471V13.0268H84.9174V4.87429H58.1495Z" fill="var(--fill-0, #283377)"/>
</g>
<path id="Vector_5" d="M152.107 9.29832e-05H144.603C143.054 9.29832e-05 141.658 0.928187 141.05 2.35038L127.53 34.2127H135.368C136.697 34.2127 137.892 33.4182 138.413 32.1963L147.08 11.7715L153.142 26.0602H143.594L147.053 34.2127H164.079C165.288 34.2127 166.102 32.9775 165.635 31.8691L152.107 9.29832e-05Z" fill="var(--fill-0, #283377)"/>
<path id="Vector_6" d="M114.116 4.87429V21.0458L101.176 4.87429H94.0782C92.5558 4.87429 91.3206 6.10952 91.3206 7.63187V34.2128H101.176V18.0412L114.116 34.2128H121.213C122.736 34.2128 123.971 32.9775 123.971 31.4552V4.87429H114.116Z" fill="var(--fill-0, #283377)"/>
</g>
</svg>
