<svg preserveAspectRatio="none" width="100%" height="100%" overflow="visible" style="display: block;" viewBox="0 0 165.762 9.83522" fill="none" xmlns="http://www.w3.org/2000/svg">
<g id="Group">
<path id="Vector" d="M3.87264 9.82178C2.99796 9.82178 2.27685 9.64817 1.70263 9.2943C1.12841 8.94042 0.701082 8.39959 0.42065 7.6718C0.140219 6.94401 0 6.0226 0 4.90755C0 3.25167 0.327184 2.02311 0.994878 1.2152C1.65589 0.407293 2.63072 0 3.9127 0C4.64716 0 5.2748 0.140214 5.7956 0.420645C6.3164 0.701077 6.71032 1.14176 6.98407 1.736C7.25783 2.33025 7.39804 3.11145 7.39804 4.07961H4.8074C4.8074 3.68567 4.78069 3.34514 4.7206 3.06471C4.66051 2.78428 4.56035 2.57062 4.42013 2.43041C4.27991 2.29019 4.07961 2.21674 3.81921 2.21674C3.54546 2.21674 3.32512 2.29019 3.17155 2.43708C3.01798 2.58397 2.90447 2.79764 2.84438 3.07807C2.78429 3.3585 2.75758 3.7057 2.75758 4.11967V5.71546C2.75758 6.12943 2.79097 6.47663 2.85107 6.76374C2.91784 7.05085 3.02466 7.26451 3.17823 7.40472C3.3318 7.54494 3.54546 7.61838 3.81921 7.61838C4.09296 7.61838 4.29327 7.55162 4.44684 7.4114C4.60041 7.27119 4.70724 7.07088 4.78069 6.79712C4.85414 6.52337 4.88084 6.1962 4.88084 5.81561H7.40472C7.40472 6.74371 7.27119 7.50488 6.99744 8.09245C6.73036 8.68669 6.32973 9.12069 5.80892 9.40113C5.28812 9.68156 4.64047 9.82178 3.8793 9.82178H3.87264Z" fill="var(--fill-0, #283377)"/>
<path id="Vector_2" d="M8.5531 9.66162V0.187052H12.8397C13.5474 0.187052 14.1083 0.32059 14.5356 0.587667C14.9563 0.854745 15.2634 1.20862 15.4504 1.65598C15.6373 2.10333 15.7308 2.59743 15.7308 3.13826C15.7308 3.67909 15.6507 4.15983 15.4838 4.61386C15.3168 5.06122 15.0497 5.44848 14.6692 5.75562L16.0045 9.6683H13.1134L12.192 6.49008H11.2573V9.6683H8.55978L8.5531 9.66162ZM11.2506 4.44026H12.3523C12.5793 4.44026 12.7462 4.33343 12.8464 4.11977C12.9465 3.90611 12.9999 3.64571 12.9999 3.33857C12.9999 3.13826 12.9732 2.95798 12.9332 2.80441C12.8931 2.65084 12.8197 2.52398 12.7262 2.42383C12.6327 2.32367 12.5125 2.27693 12.3523 2.27693H11.2506V4.44026Z" fill="var(--fill-0, #283377)"/>
<path id="Vector_3" d="M16.8458 9.66162V0.187052H23.2223V2.39044H19.5433V3.76589H22.6414V5.94257H19.5433V7.45824H23.3024V9.66162H16.8458Z" fill="var(--fill-0, #283377)"/>
<path id="Vector_4" d="M23.7431 9.66162L26.1669 0.187052H29.7056L32.1294 9.66162H29.2783L29.0179 8.28618H26.7745L26.514 9.66162H23.7431ZM27.1751 6.18962H28.6173L28.2768 4.27334C28.2567 4.17986 28.2367 4.05968 28.2167 3.91278C28.1899 3.76589 28.1632 3.60564 28.1365 3.43872C28.1098 3.27179 28.0764 3.0982 28.0497 2.93127C28.023 2.76435 27.9963 2.61078 27.9696 2.47056H27.8494C27.8294 2.64416 27.8027 2.83779 27.7693 3.05813C27.7359 3.27179 27.6959 3.48546 27.6625 3.69912C27.6224 3.91279 27.589 4.10641 27.549 4.28001L27.1884 6.1963L27.1751 6.18962Z" fill="var(--fill-0, #283377)"/>
<path id="Vector_5" d="M33.7585 9.66162V2.44386H31.5017V0.187052H38.6928V2.44386H36.4627V9.66162H33.7652H33.7585Z" fill="var(--fill-0, #283377)"/>
<path id="Vector_6" d="M39.6676 9.66162V0.187052H42.3651V9.66162H39.6676Z" fill="var(--fill-0, #283377)"/>
<path id="Vector_7" d="M43.7806 9.66162V0.187052H46.2578L47.8135 3.23173C47.8602 3.32521 47.9203 3.43204 47.9871 3.56558C48.0539 3.69912 48.1273 3.82598 48.1941 3.9662C48.2609 4.10641 48.321 4.23328 48.3677 4.35346L48.4344 4.34011V0.19373H50.9717V9.6683H48.4946L46.812 6.49008C46.7185 6.30312 46.6384 6.12285 46.5716 5.94925C46.5048 5.76897 46.438 5.59537 46.3713 5.43513L46.3045 5.44848C46.3112 5.62208 46.3179 5.80235 46.3179 5.98931V9.67498H43.7873L43.7806 9.66162Z" fill="var(--fill-0, #283377)"/>
<path id="Vector_8" d="M55.8325 9.82187C54.6507 9.82187 53.7426 9.41457 53.115 8.59999C52.4874 7.7854 52.1735 6.55685 52.1735 4.91432C52.1735 3.80595 52.3271 2.88453 52.6409 2.15674C52.9547 1.42896 53.4088 0.894801 54.003 0.540924C54.5973 0.187046 55.3317 0.013445 56.2064 0.013445C56.774 0.013445 57.2881 0.0868925 57.7421 0.233785C58.1961 0.380678 58.5834 0.601017 58.9106 0.901479C59.2377 1.20194 59.4848 1.57585 59.6584 2.0232C59.832 2.47056 59.9188 2.99803 59.9188 3.60564H57.3281C57.3281 3.412 57.3014 3.23173 57.2613 3.06481C57.2146 2.89788 57.1478 2.74431 57.0544 2.61745C56.9609 2.49059 56.8474 2.39043 56.7072 2.32367C56.567 2.2569 56.4 2.22351 56.1997 2.22351C55.9527 2.22351 55.7457 2.26357 55.5788 2.3437C55.4119 2.42382 55.285 2.544 55.1848 2.70425C55.0847 2.8645 55.0179 3.06481 54.9778 3.30518C54.9378 3.54555 54.9178 3.8193 54.9178 4.13311V5.7289C54.9178 6.14955 54.9578 6.50343 55.0313 6.79054C55.1114 7.07765 55.2449 7.28463 55.4319 7.42485C55.6188 7.56506 55.8792 7.63183 56.2131 7.63183C56.4668 7.63183 56.6804 7.57174 56.8474 7.45823C57.0143 7.34472 57.1412 7.19115 57.228 6.99752C57.3148 6.80389 57.3615 6.59691 57.3615 6.37657V6.3098H56.0261V4.38016H59.9255V9.6683H58.5367L58.343 8.77359C58.1694 8.9739 57.9691 9.15417 57.7354 9.31442C57.5084 9.47467 57.2347 9.60153 56.9208 9.69501C56.607 9.78848 56.2465 9.83522 55.8325 9.83522V9.82187Z" fill="var(--fill-0, #283377)"/>
<path id="Vector_9" d="M66.0415 9.66162L63.8381 0.187052H66.7025L67.5037 4.86759C67.5238 5.01448 67.5505 5.20143 67.5839 5.43513C67.6172 5.66214 67.6573 5.89584 67.6907 6.12953C67.7308 6.36322 67.7575 6.57688 67.7908 6.77051H67.911C67.9377 6.58356 67.9711 6.37657 67.9978 6.14288C68.0312 5.90919 68.0646 5.67549 68.098 5.44848C68.1381 5.22146 68.1647 5.02783 68.1981 4.86759L68.9994 0.187052H71.7703L69.5669 9.66162H66.0415Z" fill="var(--fill-0, #283377)"/>
<path id="Vector_10" d="M71.3964 9.66162L73.8202 0.187052H77.3589L79.7827 9.66162H76.9316L76.6712 8.28618H74.4278L74.1674 9.66162H71.3964ZM74.8217 6.18962H76.2706L75.9234 4.27334C75.9034 4.17986 75.8834 4.05968 75.8633 3.91278C75.8433 3.76589 75.8099 3.60564 75.7832 3.43872C75.7498 3.27179 75.7231 3.0982 75.6964 2.93127C75.6697 2.76435 75.643 2.61078 75.6163 2.47056H75.4894C75.4694 2.64416 75.4427 2.83779 75.4093 3.05813C75.3692 3.27179 75.3358 3.48546 75.2958 3.69912C75.2624 3.91279 75.2223 4.10641 75.1889 4.28001L74.8284 6.1963L74.8217 6.18962Z" fill="var(--fill-0, #283377)"/>
<path id="Vector_11" d="M80.5371 9.66162V0.187052H83.2346V7.40482H86.6932V9.66162H80.5371Z" fill="var(--fill-0, #283377)"/>
<path id="Vector_12" d="M90.6794 9.82187C89.9383 9.82187 89.2973 9.70168 88.7632 9.46131C88.229 9.22095 87.8217 8.84036 87.5279 8.31956C87.2408 7.79876 87.0939 7.11103 87.0939 6.26974V0.180368H89.7914V6.33651C89.7914 6.72377 89.8515 7.03759 89.9783 7.27128C90.0985 7.51165 90.3322 7.63183 90.6594 7.63183C90.9866 7.63183 91.2203 7.51165 91.3538 7.27128C91.4874 7.03091 91.5541 6.71709 91.5541 6.33651V0.180368H94.2516V6.26974C94.2516 7.11771 94.1114 7.79876 93.8243 8.31956C93.5371 8.84036 93.1299 9.22095 92.6024 9.46131C92.0683 9.70168 91.4273 9.82187 90.6728 9.82187H90.6794Z" fill="var(--fill-0, #283377)"/>
<path id="Vector_13" d="M95.647 9.66162V0.187052H102.024V2.39044H98.3445V3.76589H101.443V5.94257H98.3445V7.45824H102.104V9.66162H95.647Z" fill="var(--fill-0, #283377)"/>
<path id="Vector_14" d="M106.504 9.82185C106.01 9.82185 105.549 9.77511 105.122 9.68831C104.694 9.60151 104.32 9.44795 103.993 9.22761C103.666 9.00727 103.412 8.70013 103.225 8.29951C103.038 7.8989 102.945 7.39144 102.945 6.77717V6.65698C102.945 6.59689 102.945 6.55015 102.958 6.51009H105.522V6.77049C105.522 7.01754 105.556 7.20449 105.636 7.33803C105.709 7.46489 105.809 7.55169 105.936 7.59843C106.063 7.64517 106.203 7.6652 106.364 7.6652C106.444 7.6652 106.524 7.65852 106.597 7.64517C106.671 7.63182 106.737 7.60511 106.804 7.5784C106.871 7.54502 106.924 7.50495 106.971 7.45154C107.018 7.39812 107.051 7.33803 107.078 7.25791C107.105 7.17778 107.118 7.09766 107.118 7.00419C107.118 6.83058 107.058 6.68369 106.944 6.57018C106.831 6.45668 106.677 6.35652 106.484 6.2764C106.29 6.19627 106.076 6.10948 105.836 6.02935C105.596 5.94923 105.349 5.85575 105.095 5.76227C104.841 5.6688 104.587 5.54861 104.354 5.4084C104.113 5.26818 103.9 5.09458 103.706 4.88092C103.513 4.66726 103.359 4.40686 103.245 4.09972C103.132 3.79926 103.072 3.43202 103.072 3.01137C103.072 2.45719 103.165 1.99648 103.346 1.6159C103.526 1.23531 103.78 0.928172 104.093 0.687802C104.407 0.447432 104.768 0.273833 105.168 0.167002C105.569 0.0534936 105.99 7.80673e-05 106.43 7.80673e-05C106.871 7.80673e-05 107.285 0.0534907 107.679 0.153645C108.066 0.253799 108.413 0.414045 108.707 0.627707C109.001 0.841369 109.235 1.12848 109.402 1.47568C109.568 1.82288 109.655 2.25021 109.655 2.7443V3.05811H107.118V2.93125C107.118 2.77768 107.098 2.63747 107.065 2.51728C107.031 2.3971 106.964 2.30362 106.871 2.23685C106.778 2.17008 106.644 2.1367 106.47 2.1367C106.323 2.1367 106.203 2.1634 106.096 2.21014C105.996 2.26356 105.923 2.33033 105.876 2.41045C105.829 2.49058 105.809 2.59073 105.809 2.69756C105.809 2.88452 105.869 3.03808 105.983 3.16495C106.096 3.29181 106.25 3.40532 106.444 3.49879C106.637 3.59227 106.851 3.67907 107.091 3.75251C107.332 3.82596 107.579 3.91276 107.833 4.00624C108.086 4.09972 108.34 4.21322 108.574 4.34676C108.807 4.4803 109.028 4.64723 109.228 4.85421C109.428 5.0612 109.582 5.30824 109.689 5.59535C109.802 5.88246 109.856 6.23634 109.856 6.65031C109.856 7.36474 109.715 7.95899 109.442 8.42637C109.168 8.89376 108.781 9.24096 108.28 9.47465C107.779 9.70167 107.191 9.82185 106.51 9.82185H106.504Z" fill="var(--fill-0, #283377)"/>
<path id="Vector_15" d="M114.102 9.66162V0.187052H119.958V2.39044H116.806V4.1398H119.41V6.32983H116.806V9.66162H114.109H114.102Z" fill="var(--fill-0, #283377)"/>
<path id="Vector_16" d="M124.652 9.82187C123.77 9.82187 123.036 9.64827 122.448 9.30775C121.861 8.96722 121.413 8.43307 121.113 7.71196C120.812 6.99085 120.659 6.06276 120.659 4.921C120.659 3.77924 120.812 2.85115 121.113 2.13004C121.413 1.40893 121.861 0.874774 122.448 0.53425C123.036 0.193727 123.77 0.0201284 124.652 0.0201284C125.533 0.0201284 126.254 0.193727 126.848 0.53425C127.443 0.881451 127.883 1.40893 128.184 2.13004C128.484 2.85115 128.631 3.77924 128.631 4.921C128.631 6.06276 128.484 6.99085 128.184 7.71196C127.883 8.43307 127.443 8.96722 126.848 9.30775C126.254 9.65495 125.526 9.82187 124.652 9.82187ZM124.652 7.61848C124.892 7.61848 125.086 7.57175 125.246 7.48495C125.406 7.39815 125.526 7.27128 125.626 7.09768C125.72 6.93076 125.793 6.72377 125.833 6.49008C125.874 6.25639 125.894 5.99599 125.894 5.70888V4.11309C125.894 3.82598 125.874 3.57226 125.833 3.33189C125.793 3.09152 125.72 2.89789 125.626 2.72429C125.526 2.55736 125.406 2.42383 125.246 2.33703C125.086 2.25023 124.892 2.20349 124.652 2.20349C124.411 2.20349 124.204 2.25023 124.044 2.33703C123.89 2.42383 123.764 2.55069 123.67 2.72429C123.577 2.89121 123.51 3.0982 123.47 3.33189C123.43 3.56558 123.41 3.82598 123.41 4.11309V5.70888C123.41 5.99599 123.43 6.24971 123.47 6.49008C123.51 6.73045 123.577 6.92408 123.67 7.09768C123.764 7.27128 123.884 7.39815 124.044 7.48495C124.198 7.57175 124.405 7.61848 124.652 7.61848Z" fill="var(--fill-0, #283377)"/>
<path id="Vector_17" d="M129.833 9.66162V0.187052H134.12C134.827 0.187052 135.388 0.32059 135.815 0.587667C136.236 0.854745 136.543 1.20862 136.73 1.65598C136.917 2.10333 137.011 2.59743 137.011 3.13826C137.011 3.67909 136.931 4.15983 136.764 4.61386C136.597 5.06122 136.33 5.44848 135.949 5.75562L137.284 9.6683H134.393L133.472 6.49008H132.537V9.6683H129.84L129.833 9.66162ZM132.53 4.44026H133.632C133.859 4.44026 134.026 4.33343 134.126 4.11977C134.226 3.90611 134.28 3.64571 134.28 3.33857C134.28 3.13826 134.253 2.95798 134.213 2.80441C134.173 2.65084 134.1 2.52398 134.006 2.42383C133.913 2.32367 133.792 2.27693 133.632 2.27693H132.53V4.44026Z" fill="var(--fill-0, #283377)"/>
<path id="Vector_18" d="M141.331 9.66162V0.187052H144.028V7.40482H147.487V9.66162H141.331Z" fill="var(--fill-0, #283377)"/>
<path id="Vector_19" d="M148.382 9.66162V0.187052H151.079V9.66162H148.382Z" fill="var(--fill-0, #283377)"/>
<path id="Vector_20" d="M152.501 9.66162V0.187052H158.357V2.39044H155.205V4.1398H157.809V6.32983H155.205V9.66162H152.508H152.501Z" fill="var(--fill-0, #283377)"/>
<path id="Vector_21" d="M159.305 9.66162V0.187052H165.681V2.39044H162.002V3.76589H165.101V5.94257H162.002V7.45824H165.762V9.66162H159.305Z" fill="var(--fill-0, #283377)"/>
</g>
</svg>
